<svg width="170" height="170" viewBox="0 0 170 170" fill="none" xmlns="http://www.w3.org/2000/svg">
<g id="Amazon">
<path id="Vector" fill-rule="evenodd" clip-rule="evenodd" d="M68.7968 94.2968C62.4218 99.078 53.3906 101.469 45.4218 101.469C34.2656 101.469 24.4375 97.4843 17 90.578C16.4687 90.0468 17 89.2499 17.5312 89.7812C25.7656 94.5624 35.5937 97.2187 45.9531 97.2187C52.8593 97.2187 60.5625 95.8905 67.7343 92.703C68.7968 92.1718 69.5937 93.4999 68.7968 94.2968Z" fill="#8C82FC"/>
<path id="Vector_2" fill-rule="evenodd" clip-rule="evenodd" d="M68.7968 94.2968C62.4218 99.078 53.3906 101.469 45.4218 101.469C34.2656 101.469 24.4375 97.4843 17 90.578C16.4687 90.0468 17 89.2499 17.5312 89.7812C25.7656 94.5624 35.5937 97.2187 45.9531 97.2187C52.8593 97.2187 60.5625 95.8905 67.7343 92.703C68.7968 92.1718 69.5937 93.4999 68.7968 94.2968Z" fill="#8C82FC"/>
<path id="Vector_3" fill-rule="evenodd" clip-rule="evenodd" d="M68.7969 92.7032C62.4219 97.2188 53.3907 99.6094 45.6875 99.6094C35.3282 99.6094 26.0313 95.8907 18.8594 90.0469C18.5938 89.7813 18.0625 89.7813 17.7969 89.5157C17 88.9844 16.4688 89.7813 17.2657 90.3125C24.7032 97.2188 34.7969 101.203 45.6875 101.203C53.6563 101.203 62.6875 98.8125 69.0625 94.0313C69.3282 93.7657 69.3282 92.9688 68.7969 92.7032Z" fill="#8C82FC"/>
<path id="Vector_4" fill-rule="evenodd" clip-rule="evenodd" d="M71.1874 91.1094C70.3905 90.0469 65.8749 90.5781 63.7499 90.8437C63.2187 90.8437 62.953 90.3125 63.4843 90.0469C67.203 87.3906 73.0468 88.1875 73.578 88.9844C74.3749 89.7812 73.3124 95.8906 70.1249 98.5469C69.5937 99.0781 69.0624 98.8125 69.328 98.2812C70.3905 96.4219 71.9843 92.1719 71.1874 91.1094Z" fill="#8C82FC"/>
<path id="Vector_5" fill-rule="evenodd" clip-rule="evenodd" d="M74.1093 89.25C74.9062 90.0469 73.8437 96.1563 70.6562 98.8125C70.125 99.3438 69.5937 99.0781 69.8593 98.5469C70.6562 96.6875 72.25 92.4375 71.4531 91.375" fill="#8C82FC"/>
<path id="Vector_6" fill-rule="evenodd" clip-rule="evenodd" d="M64.0156 72.25V69.8594C64.0156 69.5937 64.2812 69.3281 64.5469 69.3281H75.7031C75.9688 69.3281 76.2344 69.5937 76.2344 69.8594V71.9844C76.2344 72.25 75.9688 72.7813 75.4375 73.5781L69.5938 81.8125C71.7188 81.8125 73.8438 82.0781 75.9688 83.1406C76.5 83.4063 76.5 83.6719 76.5 84.2031V86.8594C76.5 87.125 76.2344 87.6563 75.7031 87.3906C72.25 85.5313 67.7344 85.5313 64.0156 87.3906C63.75 87.6563 63.2187 87.125 63.2187 86.8594V84.4688C63.2187 84.2031 63.2188 83.4063 63.75 82.875L70.3906 73.3125H64.5469C64.2812 72.7813 64.0156 72.5156 64.0156 72.25ZM23.9062 87.6563H20.4531C20.1875 87.6563 19.9219 87.3906 19.9219 87.125V69.8594C19.9219 69.5937 20.1875 69.3281 20.4531 69.3281H23.6406C23.9062 69.3281 24.1719 69.5937 24.1719 69.8594V71.9844C24.9688 69.8594 26.5625 68.7969 28.6875 68.7969C30.8125 68.7969 32.1406 69.8594 32.9375 71.9844C33.7344 69.8594 35.5938 68.7969 37.4531 68.7969C38.7813 68.7969 40.375 69.3281 41.4375 70.6563C42.5 71.9844 42.2344 74.1094 42.2344 75.9688V86.8594C42.2344 87.125 41.9688 87.3906 41.7031 87.3906H38.25C37.9844 87.3906 37.7188 87.125 37.7188 86.8594V74.6406C37.4531 73.5781 36.6562 73.0469 35.8594 73.0469C35.0625 73.0469 34.2656 73.5781 33.7344 74.375C33.4687 75.1719 33.4688 76.7656 33.4688 77.5625V86.5938C33.4688 86.8594 33.2031 87.125 32.9375 87.125H29.4844C29.2188 87.125 28.9531 86.8594 28.9531 86.5938V77.5625C28.9531 75.7031 29.2188 72.7813 26.8281 72.7813C24.4375 72.7813 24.4375 75.4375 24.4375 77.5625V86.5938C24.4375 87.3906 24.1719 87.6563 23.9062 87.6563ZM85.7969 68.7969C90.8438 68.7969 93.5 73.0469 93.5 78.625C93.5 83.9375 90.5781 88.1875 85.7969 88.1875C81.0156 88.1875 78.3594 83.9375 78.3594 78.625C78.3594 73.0469 81.0156 68.7969 85.7969 68.7969ZM85.7969 72.25C83.4062 72.25 83.1406 75.7031 83.1406 77.8281C83.1406 79.9531 83.1406 84.4688 85.7969 84.4688C88.4531 84.4688 88.4531 80.75 88.4531 78.625C88.4531 77.2969 88.4531 75.4375 87.9219 74.1094C87.6562 72.7813 86.8594 72.25 85.7969 72.25ZM100.141 87.6563H96.6875C96.4219 87.6563 96.1562 87.3906 96.1562 87.125V69.8594C96.1562 69.5937 96.4219 69.3281 96.6875 69.3281H99.875C100.141 69.3281 100.406 69.5937 100.406 69.8594V72.5156C101.469 70.125 102.531 69.0625 104.922 69.0625C106.516 69.0625 107.844 69.5937 108.906 71.1875C109.703 72.5156 109.703 74.9063 109.703 76.5V87.3906C109.703 87.6563 109.437 87.9219 109.172 87.9219H105.719C105.453 87.9219 105.187 87.6563 105.187 87.3906V78.0938C105.187 76.2344 105.453 73.5781 103.062 73.5781C102.266 73.5781 101.469 74.1094 101.203 74.9063C100.672 75.9688 100.672 77.0313 100.672 78.0938V87.3906C100.672 87.3906 100.406 87.6563 100.141 87.6563Z" fill="#4D42C8"/>
<path id="Vector_7" d="M113.688 87.9219C114.568 87.9219 115.281 87.2083 115.281 86.3281C115.281 85.4479 114.568 84.7344 113.688 84.7344C112.807 84.7344 112.094 85.4479 112.094 86.3281C112.094 87.2083 112.807 87.9219 113.688 87.9219Z" fill="#8C82FC"/>
<path id="Vector_8" d="M147.687 87.6564C147.422 87.6564 147.156 87.3907 147.156 87.1251V69.8595C147.156 69.5939 147.422 69.3282 147.687 69.3282H148.75C149.016 69.3282 149.281 69.5939 149.281 69.8595V72.2501C150.078 70.3908 151.672 68.797 153.797 68.797C155.922 68.797 157.516 70.3907 158.312 72.7814C159.109 70.3907 160.969 68.797 163.359 68.797C164.953 68.797 166.547 69.8595 167.344 71.4532C168.141 73.047 168.141 74.9064 168.141 76.7657V87.1251C168.141 87.3907 167.875 87.6564 167.609 87.6564H166.016C165.75 87.6564 165.484 87.3907 165.484 87.1251V76.7657C165.484 75.4376 165.484 74.1095 164.953 73.047C164.422 71.9845 163.359 71.1876 162.297 71.1876C161.234 71.1876 160.172 71.9845 159.375 73.3126C158.578 74.9064 158.578 76.2345 158.578 77.8282V87.1251C158.578 87.3907 158.312 87.6564 158.047 87.6564H156.453C156.188 87.6564 155.922 87.3907 155.922 87.1251V75.9689C155.922 74.9064 155.922 73.8439 155.391 72.7814C154.859 71.7189 153.797 71.1876 152.734 70.922C151.672 70.922 150.609 71.7189 150.078 72.7814C149.281 74.1095 149.016 75.4376 149.016 77.0314V86.8595C149.016 87.1251 148.75 87.3907 148.484 87.3907H147.687V87.6564ZM137.594 87.922C132.812 87.922 130.688 83.1407 130.688 78.0939C130.688 73.047 133.078 68.5314 138.125 68.5314C142.906 68.5314 145.031 73.3126 145.031 78.0939C145.031 83.4064 142.641 87.922 137.594 87.922ZM137.859 85.5314C139.453 85.5314 140.781 84.4689 141.313 82.8751C141.844 81.547 142.109 79.6876 142.109 78.0939C142.109 76.2345 141.844 74.6407 141.047 73.047C140.25 71.7189 139.187 70.922 137.594 70.922C136 70.922 134.672 71.9845 134.141 73.5782C133.609 74.9064 133.344 76.7657 133.344 78.0939C133.344 79.6876 133.609 81.8126 134.141 83.1407C135.203 84.7345 136.531 85.5314 137.859 85.5314ZM122.453 85.5314C124.578 85.5314 125.641 83.672 126.172 81.547C126.172 81.2814 126.438 81.0157 126.703 81.0157H128.031C128.297 81.0157 128.563 81.2814 128.563 81.547C128.031 85.2657 125.641 87.922 122.453 87.922C117.672 87.922 115.547 83.1407 115.547 78.3595C115.547 73.5782 117.672 68.797 122.453 68.797C125.641 68.797 128.031 71.4532 128.563 75.172C128.563 75.4376 128.297 75.7032 128.031 75.7032H126.437C126.172 75.7032 125.906 75.4376 125.906 75.172C125.641 73.047 124.312 71.4532 122.188 71.1876C119 71.1876 117.938 75.172 117.938 78.3595C118.469 81.2814 119.266 85.5314 122.453 85.5314Z" fill="#8C82FC"/>
<path id="Vector_9" fill-rule="evenodd" clip-rule="evenodd" d="M55.25 79.422C55.25 80.7501 55.25 81.8126 54.7187 82.8751C54.1875 83.9376 53.3906 84.4689 52.3281 84.4689C51 84.4689 50.2031 83.4064 50.2031 82.0782C50.2031 79.1564 52.8594 78.6251 55.25 78.6251V79.422ZM58.7031 87.6564H57.9062C56.8437 86.8595 56.5781 86.3282 56.0469 85.5314C54.1875 87.3907 52.8594 87.922 50.4687 87.922C47.5469 87.922 45.4219 86.0626 45.4219 82.6095C45.4219 79.9532 47.0156 78.0939 48.875 77.0314C50.7344 76.2345 53.125 75.9689 55.25 75.9689V75.4376C55.25 74.6407 55.25 73.5782 54.7187 73.047C54.1875 72.5157 53.6562 72.2501 52.8594 72.2501C51.5312 72.2501 50.4687 72.7814 50.2031 74.3751C50.2031 74.6407 49.9375 74.9064 49.6719 74.9064L46.4844 74.3751C46.2187 74.3751 45.9531 74.1095 45.9531 73.5782C46.75 69.5939 50.2031 68.5314 53.3906 68.5314C54.9844 68.5314 57.1094 69.0626 58.4375 70.1251C60.0312 71.7189 60.0312 73.5782 60.0312 75.9689V81.2814C60.0312 82.8751 60.5625 83.672 61.3594 84.4689C61.625 84.7345 61.625 85.2657 61.3594 85.2657C60.5625 85.797 59.2344 86.8595 58.7031 87.6564ZM11.1562 79.422C11.1562 80.7501 11.1562 81.8126 10.625 82.8751C10.0937 83.9376 9.29687 84.4689 8.23437 84.4689C6.90625 84.4689 6.10937 83.4064 6.10937 82.0782C6.10937 79.1564 8.76562 78.6251 11.1562 78.6251V79.422ZM14.6094 87.6564H13.8125C12.75 86.8595 12.4844 86.3282 11.9531 85.5314C10.0937 87.3907 8.76562 87.922 6.375 87.922C3.45312 87.922 1.32812 86.0626 1.32812 82.6095C1.32812 79.9532 2.92187 78.0939 4.78125 77.0314C6.64062 76.2345 9.03125 75.9689 11.1562 75.9689V75.4376C11.1562 74.6407 11.1562 73.5782 10.625 73.047C10.0937 72.5157 9.29687 72.2501 8.76562 72.2501C7.4375 72.2501 6.375 72.7814 6.10937 74.3751C6.10937 74.6407 5.84375 74.9064 5.57812 74.9064L2.39062 74.3751C2.125 74.3751 1.85937 74.1095 1.85937 73.5782C2.65625 69.5939 6.10937 68.5314 9.29687 68.5314C10.8906 68.5314 13.0156 69.0626 14.3437 70.1251C16.2031 71.7189 15.9375 73.8439 15.9375 75.9689V81.2814C15.9375 82.8751 16.4687 83.672 17.2656 84.4689C17.5312 84.7345 17.5312 85.2657 17.2656 85.2657C16.4687 85.797 15.4062 86.8595 14.6094 87.6564Z" fill="#4D42C8"/>
<path id="Vector_10" fill-rule="evenodd" clip-rule="evenodd" d="M105.187 68.797C102.797 68.797 101.469 69.8595 100.672 72.2501V69.5939C100.672 69.3283 100.406 69.0626 100.141 69.0626H96.9531C96.6875 69.0626 96.4219 69.3283 96.4219 69.5939V74.9064C100.937 73.3126 104.922 71.7189 108.375 69.8595C107.312 69.0626 106.25 68.797 105.187 68.797ZM85.7969 68.797C81.0156 68.797 78.3594 73.047 78.3594 78.3595V79.6876C79.9531 79.422 81.5469 78.8907 83.1406 78.6251V77.8282C83.1406 75.7032 83.4062 72.2501 85.7969 72.2501C86.8594 72.2501 87.6562 72.7814 87.9219 73.8439C88.1875 74.9064 88.4531 75.9689 88.4531 77.0314C90.0469 76.5001 91.6406 76.2345 93.2344 75.7032C92.4375 71.7189 90.0469 68.797 85.7969 68.797ZM75.7031 69.0626H64.5469C64.2812 69.0626 64.0156 69.3283 64.0156 69.5939V71.9845C64.0156 72.2501 64.2812 72.5157 64.5469 72.5157H70.3906L64.2812 81.547C66.4062 81.2814 68.2656 81.0157 70.125 80.7501L75.4375 73.047C75.9688 72.2501 76.2344 71.7189 76.2344 71.4532V69.3282C76.5 69.3282 75.9688 69.0626 75.7031 69.0626ZM58.4375 70.3907C57.1094 69.0626 54.9844 68.797 53.3906 68.797C50.2031 68.797 46.75 69.8595 45.9531 73.8439C45.9531 74.3751 46.2187 74.3751 46.4844 74.6407L49.6719 74.9064C49.9375 74.9064 50.2031 74.6407 50.2031 74.3751C50.4687 73.047 51.5312 72.2501 52.8594 72.2501C53.6562 72.2501 54.4531 72.5157 54.7188 73.047C55.25 73.8439 55.25 74.6407 55.25 75.4376V75.9689C53.3906 76.2345 50.7344 76.2345 48.875 77.0314C46.75 77.8282 45.4219 79.6876 45.4219 82.6095H50.2031V82.0782C50.2031 79.1564 52.8594 78.6251 55.25 78.6251V79.422C55.25 80.4845 55.25 81.547 54.7188 82.6095C56.5781 82.6095 58.1719 82.3439 60.0312 82.3439V76.2345C60.0312 73.8439 60.0312 71.7189 58.4375 70.3907ZM37.7188 68.797C35.8594 68.797 34 69.8595 33.2031 71.9845C32.1406 69.8595 30.8125 68.797 28.9531 68.797C26.8281 68.797 25.2344 69.8595 24.4375 71.9845V69.8595C24.1719 69.3282 23.9062 69.0626 23.6406 69.0626H20.4531C20.1875 69.0626 19.9219 69.3283 19.9219 69.5939V79.9532C21.5156 80.2189 22.8438 80.4845 24.4375 80.7501V77.5626C24.4375 75.4376 24.4375 72.7814 26.8281 72.7814C29.2188 72.7814 28.9531 75.7032 28.9531 77.5626V81.2814C30.5469 81.547 32.1406 81.547 33.4688 81.8126V77.5626C33.4688 76.5001 33.4688 75.172 33.7344 74.3751C34 73.5782 34.7969 73.047 35.8594 73.047C36.9219 73.047 37.7188 73.3126 37.7188 74.6407C37.9844 75.4376 37.7188 77.0314 37.7188 77.8282V82.3439C39.3125 82.3439 40.9062 82.6095 42.2344 82.6095V76.2345C42.2344 74.3751 42.5 72.2501 41.4375 70.922C40.6406 69.3283 39.0469 68.797 37.7188 68.797ZM9.29688 68.5314C6.10938 68.5314 2.65625 69.5939 1.85938 73.5782C1.85938 74.1095 2.125 74.1095 2.39062 74.3751L5.57812 74.6407C5.84375 74.6407 6.10937 74.3751 6.10937 74.1095C6.375 72.7814 7.4375 71.9845 8.76562 71.9845C9.5625 71.9845 10.3594 72.2501 10.625 72.7814C11.1562 73.5782 11.1562 74.3751 11.1562 75.172V75.7032C9.5625 76.2345 7.17188 76.2345 5.3125 77.0314C8.76562 78.0939 12.2188 78.8907 15.9375 79.6876V76.2345C15.9375 74.1095 16.2031 71.9845 14.3438 70.3907C13.2813 69.0626 11.1562 68.5314 9.29688 68.5314Z" fill="#8C82FC"/>
</g>
</svg>
