<svg width="168" height="34" viewBox="0 0 168 34" fill="none" xmlns="http://www.w3.org/2000/svg">
<path fill-rule="evenodd" clip-rule="evenodd" d="M53.8409 14.6091C53.8036 14.6979 53.7631 14.7865 53.7188 14.8751C53.1875 15.9376 52.3906 16.4689 51.3281 16.4689C50 16.4689 49.2031 15.4064 49.2031 14.0782C49.2031 13.8956 49.2135 13.7224 49.2335 13.558C49.5341 11.092 52.0088 10.6251 54.25 10.6251V11.422C54.25 12.4845 54.25 13.547 53.7188 14.6095C53.7596 14.6095 53.8003 14.6094 53.8409 14.6091ZM59.0312 13.2814C59.0312 14.8751 59.5625 15.672 60.3594 16.4689C60.625 16.7345 60.625 17.2657 60.3594 17.2657C59.5625 17.797 58.2344 18.8595 57.7031 19.6564H56.9062C55.981 18.9624 55.66 18.4699 55.2418 17.828C55.1797 17.7328 55.1155 17.6343 55.0469 17.5314C53.1875 19.3907 51.8594 19.922 49.4688 19.922C46.5469 19.922 44.4219 18.0626 44.4219 14.6095C44.4219 11.6876 45.75 9.82824 47.875 9.03137C49.7344 8.2345 52.125 7.96887 54.25 7.96887V7.43762C54.25 6.64075 54.25 5.84387 53.7188 5.047C53.1899 4.51821 52.6611 4.25259 51.8704 4.25014C51.8668 4.25014 51.8631 4.25012 51.8594 4.25012C50.5312 4.25012 49.4688 5.047 49.2031 6.37512C49.2031 6.64075 48.9375 6.90637 48.6719 6.90637L45.4844 6.64075C45.4132 6.56957 45.342 6.51747 45.2759 6.46911C45.0955 6.33698 44.9531 6.23277 44.9531 5.84387C44.9576 5.82156 44.9621 5.79936 44.9667 5.77724C44.9579 5.71566 44.9531 5.64933 44.9531 5.57825C45.75 1.59387 49.2031 0.531372 52.3906 0.531372C53.9844 0.531372 56.1094 1.06262 57.4375 2.12512C59.0312 3.71887 59.0312 5.57825 59.0312 7.96887V8.2345V13.2814ZM10.1562 11.422C10.1562 12.7501 10.1562 13.8126 9.625 14.8751C9.09375 15.9376 8.29688 16.4689 7.23438 16.4689C5.90625 16.4689 5.10938 15.4064 5.10938 14.0782C5.10938 11.1564 7.76562 10.6251 10.1562 10.6251V11.422ZM13.6094 19.6564H12.8125C11.8873 18.9624 11.5663 18.4699 11.148 17.828L11.1471 17.8266C11.0853 17.7318 11.0214 17.6338 10.9531 17.5314C9.09375 19.3907 7.76562 19.922 5.375 19.922C2.45312 19.922 0.328125 18.0626 0.328125 14.6095C0.328125 11.9532 1.92188 10.0939 3.78125 9.03137C5.30115 8.38 7.17596 8.08359 8.97052 7.99706C9.39618 7.916 9.79651 7.82316 10.1562 7.70325V7.43762C10.1562 6.64075 10.1562 5.57825 9.625 5.047C9.09375 4.51575 8.29688 4.25012 7.76562 4.25012C6.4375 4.25012 5.375 4.78137 5.10938 6.37512C5.10938 6.64075 4.84375 6.90637 4.57812 6.90637L1.39062 6.37512C1.125 6.37512 0.859375 6.1095 0.859375 5.57825C1.65625 1.59387 5.10938 0.531372 8.29688 0.531372C9.51917 0.531372 10.8562 0.76091 11.9308 1.29551C12.4514 1.52179 12.9352 1.79832 13.3438 2.12512C14.8304 3.39938 14.9586 5.01324 14.9503 6.69518C14.9518 6.96997 14.948 7.24666 14.9441 7.5247C14.9408 7.7608 14.9375 7.99765 14.9375 8.2345V11.6876V13.2814C14.9375 14.8751 15.4688 15.672 16.2656 16.4689C16.5312 16.7345 16.5312 17.2657 16.2656 17.2657C15.4688 17.797 14.4062 18.8595 13.6094 19.6564ZM146.156 19.1251C146.156 19.3907 146.422 19.6564 146.688 19.6564V19.3907H147.484C147.75 19.3907 148.016 19.1251 148.016 18.8595V9.03137C148.016 7.43762 148.281 6.1095 149.078 4.78137C149.609 3.71887 150.672 2.922 151.734 2.922C152.797 3.18762 153.859 3.71887 154.391 4.78137C154.922 5.84387 154.922 6.90637 154.922 7.96887V19.1251C154.922 19.3907 155.188 19.6564 155.453 19.6564H157.047C157.312 19.6564 157.578 19.3907 157.578 19.1251V9.82825C157.578 8.2345 157.578 6.90637 158.375 5.31262C159.172 3.9845 160.234 3.18762 161.297 3.18762C162.359 3.18762 163.422 3.9845 163.953 5.047C164.484 6.1095 164.484 7.43762 164.484 8.76575V19.1251C164.484 19.3907 164.75 19.6564 165.016 19.6564H166.609C166.875 19.6564 167.141 19.3907 167.141 19.1251V8.76575C167.141 6.90637 167.141 5.047 166.344 3.45325C165.547 1.8595 163.953 0.796997 162.359 0.796997C159.969 0.796997 158.109 2.39075 157.312 4.78137C156.516 2.39075 154.922 0.796997 152.797 0.796997C150.672 0.796997 149.078 2.39075 148.281 4.25012V1.8595C148.281 1.59387 148.016 1.32825 147.75 1.32825H146.688C146.422 1.32825 146.156 1.59387 146.156 1.8595V19.1251ZM129.688 10.0939C129.688 15.1407 131.812 19.922 136.594 19.922C141.641 19.922 144.031 15.4064 144.031 10.0939C144.031 5.31262 141.906 0.531372 137.125 0.531372C132.078 0.531372 129.688 5.047 129.688 10.0939ZM140.312 14.8751C139.781 16.4689 138.453 17.5314 136.859 17.5314C135.531 17.5314 134.203 16.7345 133.141 15.1407C132.609 13.8126 132.344 11.6876 132.344 10.0939C132.344 8.76575 132.609 6.90637 133.141 5.57825C133.672 3.9845 135 2.922 136.594 2.922C138.188 2.922 139.25 3.71887 140.047 5.047C140.844 6.64075 141.109 8.2345 141.109 10.0939C141.109 11.6876 140.844 13.547 140.312 14.8751ZM125.172 13.547C124.641 15.672 123.578 17.5314 121.453 17.5314C118.266 17.5314 117.469 13.2814 116.938 10.3595C116.938 7.172 118 3.18762 121.188 3.18762C123.312 3.45325 124.641 5.047 124.906 7.172C124.906 7.43762 125.172 7.70325 125.438 7.70325H127.031C127.297 7.70325 127.562 7.43762 127.562 7.172C127.031 3.45325 124.641 0.796997 121.453 0.796997C116.672 0.796997 114.547 5.57825 114.547 10.3595C114.547 15.1407 116.672 19.922 121.453 19.922C124.641 19.922 127.031 17.2657 127.562 13.547C127.562 13.2814 127.297 13.0157 127.031 13.0157H125.703C125.438 13.0157 125.172 13.2814 125.172 13.547ZM63.0156 3.9845V4.25009C63.0156 4.41425 63.1171 4.57841 63.2573 4.80528C63.344 4.9455 63.4454 5.10966 63.5469 5.31258H68.8516L63.2812 13.547C63.4253 13.529 63.5681 13.511 63.7098 13.493L62.75 14.8751C62.2188 15.4063 62.2188 16.2032 62.2188 16.4688V18.8595C62.2188 19.1251 62.75 19.6563 63.0156 19.3907C66.7344 17.5313 71.25 17.5313 74.7031 19.3907C75.2344 19.6563 75.5 19.1251 75.5 18.8595V16.2032C75.5 15.672 75.5 15.4063 74.9688 15.1407C72.8438 14.0782 70.7188 13.8126 68.5938 13.8126L74.4375 5.57822C74.9688 4.78134 75.2344 4.25008 75.2344 3.98446V3.45325V1.85946V1.32825C75.5 1.32825 74.9688 1.06262 74.7031 1.06262H63.5469C63.2812 1.06262 63.0156 1.32825 63.0156 1.59387V1.85946V3.9845ZM19.4531 19.6563H22.9062C23.1719 19.6563 23.4375 19.3907 23.4375 18.5938V12.7501V9.56259C23.4375 7.43759 23.4375 4.78133 25.8281 4.78133C28.0084 4.78133 27.9793 7.21163 27.9573 9.04979C27.9573 9.04996 27.9573 9.05015 27.9573 9.05032C27.9552 9.2264 27.9531 9.39702 27.9531 9.55952C27.9531 9.56054 27.9531 9.56157 27.9531 9.56259V13.2814V18.5938C27.9531 18.8595 28.2188 19.1251 28.4844 19.1251H31.9375C32.2031 19.1251 32.4688 18.8595 32.4688 18.5938V13.8126V9.56259C32.4688 8.76572 32.4688 7.17196 32.7344 6.37508C33.2621 5.5834 34.0521 5.05389 34.8438 5.04703C34.849 5.04698 34.8542 5.04696 34.8594 5.04696C34.864 5.04696 34.8686 5.04697 34.8732 5.04701C35.6654 5.05312 36.4547 5.58435 36.7188 6.64071V9.82824V14.3439V18.8595C36.7188 19.1251 36.9844 19.3907 37.25 19.3907H40.7031C40.9688 19.3907 41.2344 19.1251 41.2344 18.8595V14.6095V8.2345C41.2344 7.92702 41.2416 7.61229 41.249 7.29509C41.2574 6.92958 41.2659 6.5611 41.2635 6.19642C41.2715 4.86967 41.1709 3.57314 40.4375 2.65633C40.2255 2.39135 39.9924 2.15809 39.7444 1.95444C38.8943 1.10472 37.7296 0.796997 36.7188 0.796997C36.675 0.796997 36.6313 0.797585 36.5876 0.798759C36.5425 0.797554 36.4977 0.796959 36.4531 0.796959C34.6795 0.796959 32.9058 1.76373 32.0544 3.69728C31.017 1.76376 29.7267 0.796997 27.9531 0.796997C27.9089 0.796997 27.8649 0.797455 27.8211 0.798378C27.7769 0.797432 27.7324 0.796959 27.6875 0.796959C25.7772 0.796959 24.2962 1.65564 23.4375 3.37299V1.8595C23.1719 1.32825 22.9062 1.06262 22.6406 1.06262H19.4531C19.1875 1.06262 18.9219 1.32825 18.9219 1.59387V1.85946V11.9532V19.1251C18.9219 19.3907 19.1875 19.6563 19.4531 19.6563ZM92.1717 7.4068C91.9365 6.32713 91.5758 5.34023 91.0923 4.47705C89.8498 2.23844 87.782 0.796989 84.7969 0.796959C84.2015 0.796959 83.6392 0.862846 83.1108 0.988983C79.3954 1.87237 77.3594 5.70851 77.3594 10.3595V10.6251V11.6876C77.3713 11.6856 77.3833 11.6836 77.3953 11.6816C77.7263 16.49 80.3372 20.1876 84.7969 20.1876C89.5781 20.1876 92.5 15.9376 92.5 10.6251C92.5 9.60047 92.4104 8.62067 92.2328 7.70378C92.2333 7.70361 92.2338 7.70342 92.2344 7.70325C92.2145 7.60376 92.1936 7.50494 92.1717 7.4068ZM82.1406 9.82821C82.1406 7.70321 82.4062 4.25009 84.7969 4.25009C84.8965 4.25009 84.9938 4.25476 85.0885 4.26432C86.0042 4.3567 86.6812 4.90585 86.9219 6.10946C87.4531 7.43758 87.4531 9.29697 87.4531 10.6251C87.4531 12.7501 87.4531 16.4688 84.7969 16.4688C82.1406 16.4688 82.1406 11.9532 82.1406 9.82821ZM95.6875 19.6563H99.1406C99.4062 19.6563 99.6719 19.3907 99.6719 19.3907V10.0938C99.6719 9.03133 99.6719 7.96884 100.203 6.90634C100.469 6.10947 101.266 5.57822 102.062 5.57822C104.241 5.57822 104.214 7.78337 104.192 9.58171C104.19 9.7571 104.188 9.92861 104.188 10.0938V19.3907C104.188 19.6563 104.453 19.922 104.719 19.922H108.172C108.438 19.922 108.703 19.6563 108.703 19.3907V8.50008C108.703 6.90633 108.703 4.51571 107.906 3.18758C107.608 2.74066 107.289 2.37728 106.95 2.08575C107.092 2.01076 107.234 1.93535 107.375 1.8595C106.312 1.06262 105.25 0.796997 104.188 0.796997C102.266 0.796997 101.03 1.48373 100.206 2.99535C100.021 3.27924 99.8451 3.59612 99.6719 3.94713V1.59387C99.6719 1.32825 99.4062 1.06262 99.1406 1.06262H95.9531C95.7599 1.06262 95.5667 1.20316 95.4757 1.38201C95.2968 1.47298 95.1562 1.66622 95.1562 1.85946V19.1251C95.1562 19.3907 95.4219 19.6563 95.6875 19.6563ZM62.7499 22.8438C64.8749 22.5782 69.3906 22.0469 70.1874 23.1094C70.9843 24.1719 69.3906 28.4219 68.3281 30.2813C68.1197 30.6981 68.4017 30.9513 68.7894 30.7847C68.7681 31.1439 69.2122 31.2565 69.6562 30.8125C72.8437 28.1562 73.9062 22.0469 73.1093 21.25L72.7879 21.5071C72.7467 21.2627 72.6766 21.083 72.5781 20.9844C72.0468 20.1876 66.2031 19.3907 62.4843 22.0469C61.9531 22.3126 62.2187 22.8438 62.7499 22.8438ZM67.7969 24.7032L67.73 24.7505C67.4774 24.5634 67.1237 24.5084 66.7343 24.7031C59.5624 27.8906 51.8593 29.2187 44.9531 29.2187C35.9125 29.2187 27.2765 27.1957 19.7513 23.5028C19.1055 23.0338 18.4746 22.5482 17.8594 22.0469C17.7266 21.9141 17.5274 21.8477 17.3282 21.7813C17.129 21.7149 16.9297 21.6485 16.7969 21.5156C16.2558 21.1549 15.8372 21.4066 15.8737 21.7716C15.7344 21.9696 15.73 22.3081 15.9999 22.5781C23.4374 29.4843 33.2656 33.4687 44.4218 33.4687C52.3906 33.4687 61.4218 31.0781 67.7968 26.2968C67.853 26.2406 67.9013 26.1817 67.9421 26.121C67.9824 26.0912 68.0225 26.0613 68.0626 26.0313C68.3282 25.7656 68.3282 24.9688 67.7969 24.7032ZM112.688 19.922C113.568 19.922 114.281 19.2084 114.281 18.3282C114.281 17.448 113.568 16.7345 112.688 16.7345C111.807 16.7345 111.094 17.448 111.094 18.3282C111.094 19.2084 111.807 19.922 112.688 19.922Z" fill="#8C82FC"/>
</svg>
